<?xml version="1.0" encoding="UTF-8" standalone="no"?>
<!-- Created with Inkscape (http://www.inkscape.org/) -->

<svg
   xmlns:dc="http://purl.org/dc/elements/1.1/"
   xmlns:cc="http://creativecommons.org/ns#"
   xmlns:rdf="http://www.w3.org/1999/02/22-rdf-syntax-ns#"
   xmlns:svg="http://www.w3.org/2000/svg"
   xmlns="http://www.w3.org/2000/svg"
   xmlns:sodipodi="http://sodipodi.sourceforge.net/DTD/sodipodi-0.dtd"
   xmlns:inkscape="http://www.inkscape.org/namespaces/inkscape"
   version="1.1"
   id="svg2"
   xml:space="preserve"
   width="4096"
   height="4096"
   viewBox="0 0 4095.9998 4095.9998"
   sodipodi:docname="sodimac-logo.svg"
   inkscape:export-filename="G:\Users\suitedoalex\sites\sodimac-logo-0.png"
   inkscape:export-xdpi="96"
   inkscape:export-ydpi="96"
   inkscape:version="0.92.2 (5c3e80d, 2017-08-06)"><metadata
     id="metadata8"><rdf:RDF><cc:Work
         rdf:about=""><dc:format>image/svg+xml</dc:format><dc:type
           rdf:resource="http://purl.org/dc/dcmitype/StillImage" /><dc:title></dc:title></cc:Work></rdf:RDF></metadata><defs
     id="defs6"><clipPath
       clipPathUnits="userSpaceOnUse"
       id="clipPath54"><path
         d="M 0,0 H 793.701 V 793.701 H 0 Z"
         id="path52"
         inkscape:connector-curvature="0" /></clipPath><clipPath
       clipPathUnits="userSpaceOnUse"
       id="clipPath84"><path
         d="M 0,0 H 793.701 V 793.701 H 0 Z"
         id="path82"
         inkscape:connector-curvature="0" /></clipPath></defs><sodipodi:namedview
     pagecolor="#ffffff"
     bordercolor="#666666"
     borderopacity="1"
     objecttolerance="10"
     gridtolerance="10"
     guidetolerance="10"
     inkscape:pageopacity="0"
     inkscape:pageshadow="2"
     inkscape:window-width="1600"
     inkscape:window-height="837"
     id="namedview4"
     showgrid="false"
     inkscape:zoom="0.078844494"
     inkscape:cx="2614.3498"
     inkscape:cy="1473.2875"
     inkscape:window-x="-8"
     inkscape:window-y="-8"
     inkscape:window-maximized="1"
     inkscape:current-layer="g10" /><g
     id="g10"
     inkscape:groupmode="layer"
     inkscape:label="sodimac-logo"
     transform="matrix(1.3333333,0,0,-1.3333333,0,4096.0001)"><g
       id="g48"
       transform="matrix(13.705678,0,0,13.705678,-3903.1023,-3903.1008)"
       inkscape:export-filename="G:\Users\suitedoalex\sites\sodimac-logo-4.png"
       inkscape:export-xdpi="11.270485"
       inkscape:export-ydpi="11.270485"><g
         id="g50"
         clip-path="url(#clipPath54)"><g
           id="g56"
           transform="translate(361.7005,388.2756)"><path
             d="m 0,0 c 0,-1.219 -0.314,-2.278 -0.938,-3.171 -0.625,-0.891 -1.495,-1.573 -2.612,-2.048 -1.119,-0.474 -2.401,-0.71 -3.846,-0.71 -0.404,0 -0.899,0.026 -1.486,0.077 -0.588,0.053 -1.368,0.193 -2.339,0.431 -0.973,0.233 -1.984,0.582 -3.035,1.042 v 4.788 c 0.984,-0.612 1.955,-1.119 2.909,-1.523 0.951,-0.403 1.974,-0.606 3.063,-0.606 1.004,0 1.656,0.167 1.952,0.502 0.295,0.334 0.443,0.647 0.443,0.937 0,0.526 -0.254,0.971 -0.761,1.333 -0.507,0.361 -1.245,0.731 -2.212,1.116 -1.07,0.453 -2.01,0.942 -2.817,1.475 -0.808,0.528 -1.468,1.194 -1.98,1.992 -0.511,0.799 -0.767,1.743 -0.767,2.833 0,1.053 0.259,2.002 0.776,2.853 0.514,0.851 1.305,1.53 2.365,2.035 1.061,0.508 2.357,0.763 3.889,0.763 1.087,0 2.097,-0.106 3.022,-0.319 0.926,-0.212 1.689,-0.447 2.289,-0.71 0.601,-0.263 1.015,-0.471 1.24,-0.619 v -4.58 c -0.798,0.571 -1.689,1.084 -2.671,1.533 -0.98,0.453 -2.03,0.678 -3.148,0.678 -0.732,0 -1.264,-0.141 -1.592,-0.422 -0.329,-0.283 -0.491,-0.63 -0.491,-1.042 0,-0.385 0.162,-0.72 0.491,-0.999 C -7.928,7.354 -7.34,7.011 -6.495,6.608 -4.992,5.903 -3.79,5.27 -2.888,4.708 -1.988,4.144 -1.28,3.492 -0.769,2.754 -0.256,2.019 0,1.101 0,0"
             style="fill:#ed1c2c;fill-opacity:1;fill-rule:nonzero;stroke:none"
             id="path58"
             inkscape:connector-curvature="0" /></g><g
           id="g60"
           transform="translate(385.667,392.1974)"><path
             d="m 0,0 c 0,-1.789 -0.413,-3.437 -1.238,-4.941 -0.825,-1.504 -2.055,-2.696 -3.687,-3.582 -1.634,-0.887 -3.622,-1.329 -5.964,-1.329 -2.373,0 -4.377,0.461 -6.02,1.384 -1.643,0.92 -2.862,2.136 -3.659,3.638 -0.798,1.504 -1.198,3.114 -1.198,4.83 0,1.725 0.398,3.337 1.19,4.835 0.794,1.501 2.015,2.708 3.66,3.626 1.648,0.918 3.654,1.378 6.027,1.378 1.771,0 3.35,-0.263 4.739,-0.79 1.388,-0.526 2.53,-1.24 3.425,-2.136 0.894,-0.9 1.571,-1.948 2.033,-3.142 C -0.23,2.574 0,1.318 0,0 m -5.894,0 c 0,0.718 -0.108,1.376 -0.32,1.971 -0.211,0.596 -0.533,1.11 -0.96,1.55 -0.429,0.44 -0.951,0.78 -1.571,1.024 -0.619,0.245 -1.335,0.367 -2.144,0.367 -1.549,0 -2.767,-0.453 -3.652,-1.356 C -15.427,2.652 -15.87,1.468 -15.87,0 c 0,-1.468 0.443,-2.656 1.334,-3.563 0.889,-0.907 2.107,-1.364 3.647,-1.364 1.059,0 1.963,0.208 2.713,0.63 0.747,0.42 1.313,1.002 1.699,1.743 0.389,0.743 0.583,1.594 0.583,2.554"
             style="fill:#ed1c2c;fill-opacity:1;fill-rule:nonzero;stroke:none"
             id="path62"
             inkscape:connector-curvature="0" /></g><g
           id="g64"
           transform="translate(407.938,391.8391)"><path
             d="m 0,0 c 0,-1.966 -0.356,-3.543 -1.072,-4.733 -0.715,-1.192 -1.555,-2.156 -2.526,-2.893 -1.372,-1.079 -3.297,-1.62 -5.768,-1.62 h -0.292 -10.058 v 19.18 h 7.97 c 1.197,0 2.225,-0.062 3.079,-0.186 0.851,-0.126 1.619,-0.3 2.304,-0.526 C -5.681,8.995 -5.102,8.74 -4.62,8.459 -4.142,8.18 -3.713,7.877 -3.333,7.553 -2.68,7.019 -2.105,6.387 -1.612,5.659 -1.117,4.929 -0.727,4.085 -0.434,3.125 -0.144,2.167 0,1.123 0,0 m -5.88,0.246 c 0,1.561 -0.297,2.775 -0.894,3.646 -0.593,0.874 -1.307,1.456 -2.141,1.75 -0.836,0.298 -1.689,0.444 -2.556,0.444 h -2.462 V -5.272 h 2.462 c 1.515,0 2.822,0.358 3.93,1.075 1.108,0.722 1.661,2.204 1.661,4.443"
             style="fill:#ed1c2c;fill-opacity:1;fill-rule:nonzero;stroke:none"
             id="path66"
             inkscape:connector-curvature="0" /></g></g></g><path
       d="m 1799.6519,1340.6228 h -79.2599 v 262.8475 h 79.2599 z"
       style="fill:#ed1c2c;fill-opacity:1;fill-rule:nonzero;stroke:none;stroke-width:13.70567703"
       id="path68"
       inkscape:connector-curvature="0"
       inkscape:export-filename="G:\Users\suitedoalex\sites\sodimac-logo-4.png"
       inkscape:export-xdpi="11.270485"
       inkscape:export-ydpi="11.270485" /><g
       id="g70"
       transform="matrix(13.705678,0,0,13.705678,2143.1354,1340.5968)"
       inkscape:export-filename="G:\Users\suitedoalex\sites\sodimac-logo-4.png"
       inkscape:export-xdpi="11.270485"
       inkscape:export-ydpi="11.270485"><path
         d="m 0,0 h -5.787 v 11.113 l -5.215,-6.435 h -0.456 l -5.23,6.435 V 0 h -5.617 v 19.179 h 5.243 l 5.894,-7.195 5.923,7.195 H 0 Z"
         style="fill:#ed1c2c;fill-opacity:1;fill-rule:nonzero;stroke:none"
         id="path72"
         inkscape:connector-curvature="0" /></g><g
       id="g74"
       transform="matrix(13.705678,0,0,13.705678,2479.9249,1340.5927)"
       inkscape:export-filename="G:\Users\suitedoalex\sites\sodimac-logo-4.png"
       inkscape:export-xdpi="11.270485"
       inkscape:export-ydpi="11.270485"><path
         d="m 0,0 h -5.923 l -1.563,3.888 h -8.329 L -17.407,0 h -5.921 l 8.482,19.179 h 6.391 z m -8.813,7.225 -2.811,7 -2.835,-7 z"
         style="fill:#ed1c2c;fill-opacity:1;fill-rule:nonzero;stroke:none"
         id="path76"
         inkscape:connector-curvature="0" /></g><g
       id="g78"
       transform="matrix(13.705678,0,0,13.705678,-3903.1023,-3903.1008)"
       inkscape:export-filename="G:\Users\suitedoalex\sites\sodimac-logo-4.png"
       inkscape:export-xdpi="11.270485"
       inkscape:export-ydpi="11.270485"><g
         id="g80"
         clip-path="url(#clipPath84)"><g
           id="g86"
           transform="translate(483.3834,384.0338)"><path
             d="m 0,0 c -0.792,-0.416 -1.605,-0.747 -2.435,-0.997 -0.831,-0.248 -1.667,-0.429 -2.512,-0.533 -0.843,-0.106 -1.717,-0.157 -2.621,-0.157 -1.669,0 -3.165,0.23 -4.491,0.69 -1.323,0.462 -2.473,1.143 -3.444,2.043 -0.975,0.896 -1.703,1.949 -2.189,3.154 -0.482,1.201 -0.724,2.523 -0.724,3.963 0,1.652 0.286,3.098 0.858,4.339 0.571,1.239 1.372,2.271 2.4,3.092 1.029,0.822 2.199,1.428 3.514,1.82 1.316,0.391 2.701,0.588 4.158,0.588 2.178,0 4.646,-0.484 7.404,-1.453 v -5.093 c -0.949,0.59 -1.889,1.082 -2.817,1.475 -0.927,0.391 -2.017,0.588 -3.273,0.588 -1.115,0 -2.157,-0.221 -3.125,-0.663 -0.971,-0.445 -1.748,-1.077 -2.338,-1.897 -0.591,-0.821 -0.887,-1.781 -0.887,-2.878 0,-0.971 0.259,-1.858 0.775,-2.663 0.517,-0.809 1.234,-1.45 2.151,-1.926 0.92,-0.475 1.953,-0.712 3.107,-0.712 0.931,0 1.814,0.111 2.643,0.338 0.83,0.226 1.528,0.478 2.095,0.757 0.57,0.276 1.152,0.603 1.751,0.98 z"
             style="fill:#ed1c2c;fill-opacity:1;fill-rule:nonzero;stroke:none"
             id="path88"
             inkscape:connector-curvature="0" /></g><g
           id="g90"
           transform="translate(486.9485,386.3351)"><path
             d="M 0,0 H 0.754 C 1.092,0 1.351,-0.055 1.515,-0.168 1.692,-0.277 1.78,-0.447 1.78,-0.668 1.78,-0.845 1.723,-0.991 1.628,-1.108 1.531,-1.221 1.396,-1.294 1.221,-1.322 L 1.763,-2.439 H 1.34 L 0.853,-1.365 H 0.382 V -2.439 H 0 Z M 0.382,-0.301 V -1.108 H 0.77 c 0.225,0 0.382,0.031 0.475,0.095 0.095,0.058 0.144,0.16 0.144,0.294 0,0.149 -0.049,0.259 -0.146,0.325 -0.106,0.067 -0.27,0.093 -0.489,0.093 z"
             style="fill:#ed1c2c;fill-opacity:1;fill-rule:nonzero;stroke:none"
             id="path92"
             inkscape:connector-curvature="0" /></g><g
           id="g94"
           transform="translate(487.7305,382.7383)"><path
             d="m 0,0 c -0.305,0 -0.597,0.06 -0.887,0.183 -0.285,0.122 -0.54,0.299 -0.759,0.514 -0.218,0.223 -0.391,0.471 -0.503,0.754 -0.124,0.292 -0.178,0.586 -0.178,0.891 0,0.261 0.042,0.511 0.125,0.756 0.083,0.25 0.212,0.476 0.375,0.684 0.226,0.289 0.494,0.508 0.808,0.656 C -0.444,4.722 0.29,4.75 0.907,4.494 1.19,4.375 1.448,4.206 1.663,3.974 1.888,3.76 2.052,3.507 2.168,3.226 2.282,2.943 2.342,2.643 2.342,2.342 2.342,2.026 2.278,1.72 2.165,1.433 2.046,1.145 1.866,0.894 1.652,0.686 1.431,0.471 1.172,0.303 0.887,0.183 0.599,0.06 0.303,0 0,0 M 0,4.31 C -0.305,4.31 -0.602,4.242 -0.86,4.115 -1.125,3.987 -1.354,3.801 -1.546,3.556 -1.683,3.381 -1.785,3.185 -1.86,2.979 -1.928,2.775 -1.964,2.565 -1.964,2.342 c 0,-0.259 0.053,-0.511 0.142,-0.758 0.102,-0.231 0.247,-0.445 0.431,-0.624 0.188,-0.19 0.405,-0.338 0.644,-0.442 0.479,-0.2 0.999,-0.202 1.492,0 0.244,0.101 0.465,0.241 0.65,0.426 0.199,0.182 0.335,0.389 0.434,0.629 0.095,0.24 0.148,0.501 0.148,0.769 0,0.254 -0.048,0.506 -0.148,0.745 C 1.734,3.326 1.594,3.534 1.409,3.722 1.223,3.914 1.007,4.063 0.77,4.158 0.527,4.26 0.268,4.31 0,4.31"
             style="fill:#ed1c2c;fill-opacity:1;fill-rule:nonzero;stroke:none"
             id="path96"
             inkscape:connector-curvature="0" /></g></g></g><g
       id="g98"
       transform="matrix(13.705678,0,0,13.705678,657.14801,1697.2171)"
       inkscape:export-filename="G:\Users\suitedoalex\sites\sodimac-logo-7.png"
       inkscape:export-xdpi="95.915596"
       inkscape:export-ydpi="95.915596"><path
         d="m 0,0 h -7.187 v 2.742 h -2.741 -2.737 V 0 h -7.153 l -9.281,-10.616 V -26.023 H 9.24 v 15.407 z"
         style="fill:#000000;fill-opacity:1;fill-rule:nonzero;stroke:none"
         id="path100"
         inkscape:connector-curvature="0" /></g><path
       d="M 502.28619,1378.1353 H 295.86498 v 135.974 h 206.42121 z"
       style="fill:#ed1c2c;fill-opacity:1;fill-rule:nonzero;stroke:none;stroke-width:13.70567703"
       id="path102"
       inkscape:connector-curvature="0"
       inkscape:export-filename="G:\Users\suitedoalex\sites\sodimac-logo-7.png"
       inkscape:export-xdpi="95.915596"
       inkscape:export-ydpi="95.915596" /><path
       d="M 746.30208,1378.1353 H 539.82604 v 135.974 h 206.47604 z"
       style="fill:#ffffff;fill-opacity:1;fill-rule:nonzero;stroke:none;stroke-width:13.70567703"
       id="path104"
       inkscape:connector-curvature="0"
       inkscape:export-filename="G:\Users\suitedoalex\sites\sodimac-logo-7.png"
       inkscape:export-xdpi="95.915596"
       inkscape:export-ydpi="95.915596" /><g
       id="g106"
       transform="matrix(13.705678,0,0,13.705678,736.97259,1551.9301)"
       inkscape:export-filename="G:\Users\suitedoalex\sites\sodimac-logo-7.png"
       inkscape:export-xdpi="95.915596"
       inkscape:export-ydpi="95.915596"><path
         d="M 0,0 -6.874,7.887 H -21.253 L -14.348,0 Z"
         style="fill:#0072ba;fill-opacity:1;fill-rule:nonzero;stroke:none"
         id="path108"
         inkscape:connector-curvature="0" /></g><g
       id="g110"
       transform="matrix(13.705678,0,0,13.705678,493.04308,1551.8232)"
       inkscape:export-filename="G:\Users\suitedoalex\sites\sodimac-logo-7.png"
       inkscape:export-xdpi="95.915596"
       inkscape:export-ydpi="95.915596"><path
         d="M 0,0 -6.743,7.917 -13.669,0 Z"
         style="fill:#fedf00;fill-opacity:1;fill-rule:nonzero;stroke:none"
         id="path112"
         inkscape:connector-curvature="0" /></g></g></svg>