<svg width="134" height="21" viewBox="0 0 134 21" fill="none" xmlns="http://www.w3.org/2000/svg">
<g clip-path="url(#clip0_1243_6567)">
<path fill-rule="evenodd" clip-rule="evenodd" d="M41.7845 16.5688C41.7845 17.4539 41.5614 18.22 41.1152 18.867C40.6689 19.5141 40.0441 20.0124 39.2409 20.3546C38.4376 20.6967 37.5228 20.8677 36.4815 20.8677C36.1915 20.8677 35.8345 20.8529 35.418 20.8082C34.994 20.7711 34.4362 20.6669 33.7445 20.4959C33.0454 20.3248 32.3239 20.0719 31.5653 19.7372V16.2639C32.2719 16.7101 32.971 17.0746 33.6553 17.3646C34.3395 17.6547 35.0684 17.8035 35.8493 17.8035C36.5708 17.8035 37.0394 17.6845 37.2476 17.439C37.4633 17.201 37.5674 16.9705 37.5674 16.7622C37.5674 16.3829 37.3889 16.0556 37.0245 15.7953C36.66 15.535 36.132 15.2598 35.4403 14.9846C34.6742 14.6574 33.9974 14.3004 33.4173 13.9136C32.8371 13.5268 32.3611 13.0434 31.9967 12.4707C31.6322 11.8906 31.4463 11.2063 31.4463 10.4179C31.4463 9.62955 31.6322 8.96761 32.0041 8.35029C32.376 7.73297 32.9412 7.24209 33.6999 6.87021C34.4585 6.50576 35.3882 6.31982 36.489 6.31982C37.2699 6.31982 37.9914 6.3942 38.6533 6.55039C39.3153 6.70658 39.8656 6.87764 40.297 7.06358C40.7284 7.25696 41.0259 7.40571 41.1895 7.51728V10.8419C40.6168 10.4254 39.9772 10.0535 39.2781 9.72624C38.5715 9.39899 37.8203 9.23536 37.017 9.23536C36.489 9.23536 36.1097 9.33949 35.8791 9.5403C35.6411 9.74112 35.5221 9.99399 35.5221 10.2989C35.5221 10.5816 35.6411 10.8196 35.8791 11.0278C36.1171 11.2286 36.5336 11.4815 37.1435 11.7716C38.2219 12.2848 39.0847 12.7459 39.7318 13.155C40.3788 13.564 40.8846 14.0326 41.249 14.5681C41.6135 15.1036 41.7994 15.7656 41.7994 16.5688" fill="#E1081F"/>
<path fill-rule="evenodd" clip-rule="evenodd" d="M58.9732 13.7274C58.9732 15.029 58.6757 16.219 58.0881 17.3123C57.4931 18.4056 56.6155 19.2684 55.4403 19.9154C54.2726 20.5551 52.8446 20.8823 51.1637 20.8823C49.4828 20.8823 48.0251 20.5476 46.8499 19.8783C45.6748 19.2089 44.7972 18.3312 44.2245 17.2379C43.6518 16.1446 43.3691 14.9769 43.3691 13.7348C43.3691 12.4927 43.6518 11.3176 44.2245 10.2243C44.7897 9.13838 45.6674 8.26075 46.8499 7.59136C48.0325 6.92198 49.468 6.59473 51.1712 6.59473C52.443 6.59473 53.5735 6.7881 54.5702 7.16742C55.5668 7.54674 56.3849 8.06737 57.0246 8.72188C57.6642 9.37639 58.1551 10.135 58.4823 10.9978C58.8096 11.868 58.9806 12.7754 58.9806 13.7348M54.7561 13.7348C54.7561 13.2142 54.6817 12.7382 54.5255 12.3068C54.3693 11.8754 54.1462 11.5035 53.8338 11.1837C53.5289 10.8639 53.1496 10.6185 52.7108 10.44C52.2645 10.2615 51.7513 10.1722 51.1712 10.1722C50.063 10.1722 49.1853 10.4995 48.5531 11.154C47.9209 11.8085 47.6011 12.6712 47.6011 13.7348C47.6011 14.7984 47.9209 15.6611 48.5606 16.3231C49.2002 16.985 50.0704 17.3123 51.1786 17.3123C51.9372 17.3123 52.5843 17.1635 53.1198 16.8586C53.6553 16.5537 54.0644 16.1297 54.3396 15.5942C54.6148 15.0587 54.7561 14.4414 54.7561 13.7422" fill="#E1081F"/>
<path fill-rule="evenodd" clip-rule="evenodd" d="M74.9415 13.9883C74.9415 15.4163 74.6886 16.5617 74.1754 17.4244C73.6622 18.2872 73.0598 18.9863 72.3681 19.5218C71.3789 20.3028 70.0029 20.697 68.2328 20.697H60.8101V6.78125H66.5221C67.3849 6.78125 68.1212 6.82588 68.7311 6.91513C69.341 7.00438 69.8914 7.13082 70.3822 7.29444C70.8731 7.45807 71.2896 7.64401 71.6317 7.84483C71.9739 8.04564 72.2863 8.26877 72.554 8.49933C73.0226 8.88609 73.4391 9.34722 73.7887 9.87529C74.1457 10.4034 74.4208 11.0132 74.6291 11.7124C74.8373 12.4115 74.9415 13.1627 74.9415 13.9808M70.7244 13.8023C70.7244 12.6718 70.5087 11.7867 70.0847 11.1546C69.6608 10.5224 69.1476 10.0984 68.5452 9.88273C67.9427 9.66704 67.3328 9.56291 66.7155 9.56291H64.9528V17.8038H66.7155C67.8014 17.8038 68.7385 17.5434 69.5343 17.0228C70.3302 16.5022 70.7244 15.4237 70.7244 13.8023Z" fill="#E1081F"/>
<path fill-rule="evenodd" clip-rule="evenodd" d="M76.6372 20.6895H80.7874V6.78125H76.6372V20.6895Z" fill="#E1081F"/>
<path fill-rule="evenodd" clip-rule="evenodd" d="M98.7569 20.6895H94.6068V12.6272L90.8656 17.298H90.5384L86.7899 12.6272V20.6895H82.7661V6.78125H86.5221L90.7466 11.995L94.9935 6.78125H98.7569V20.6895Z" fill="#E1081F"/>
<path fill-rule="evenodd" clip-rule="evenodd" d="M116.376 20.6892H112.129L111.006 17.8703H105.034L103.896 20.6892H99.6489L105.733 6.77344H110.314L116.376 20.6892ZM110.054 15.4457L108.039 10.3658L106.008 15.4457H110.054Z" fill="#E1081F"/>
<path fill-rule="evenodd" clip-rule="evenodd" d="M129.043 19.6473C128.477 19.9448 127.89 20.1903 127.295 20.3688C126.7 20.5473 126.097 20.6811 125.495 20.7555C124.892 20.8299 124.26 20.8745 123.613 20.8745C122.416 20.8745 121.345 20.7109 120.393 20.3762C119.441 20.0415 118.623 19.5506 117.923 18.8961C117.224 18.2416 116.704 17.483 116.354 16.6053C116.005 15.7351 115.833 14.7757 115.833 13.727C115.833 12.5295 116.042 11.4808 116.451 10.5809C116.86 9.68095 117.433 8.92975 118.169 8.33475C118.905 7.73974 119.746 7.30092 120.69 7.01086C121.635 6.72823 122.624 6.58691 123.673 6.58691C125.235 6.58691 127.005 6.93648 128.983 7.64305V11.3395C128.299 10.9082 127.63 10.5586 126.968 10.2685C126.306 9.98589 125.517 9.84458 124.617 9.84458C123.814 9.84458 123.07 10.0082 122.379 10.328C121.687 10.6478 121.122 11.109 120.705 11.704C120.281 12.299 120.073 12.9981 120.073 13.7939C120.073 14.4931 120.259 15.1401 120.631 15.7277C121.003 16.3153 121.516 16.7764 122.17 17.126C122.832 17.4681 123.569 17.6466 124.402 17.6466C125.071 17.6466 125.703 17.5648 126.298 17.4012C126.893 17.2375 127.392 17.0516 127.801 16.8508C128.21 16.65 128.626 16.412 129.058 16.1368V19.6622L129.043 19.6473Z" fill="#E1081F"/>
<path fill-rule="evenodd" clip-rule="evenodd" d="M131.601 17.9746H132.144C132.389 17.9746 132.567 18.0118 132.686 18.101C132.813 18.1829 132.88 18.3019 132.88 18.4655C132.88 18.5919 132.843 18.6961 132.768 18.7853C132.701 18.8671 132.605 18.9192 132.478 18.9415L132.865 19.7522H132.56L132.21 18.9712H131.876V19.7522H131.601V17.982V17.9746ZM131.876 18.1903V18.7779H132.151C132.315 18.7779 132.426 18.7556 132.493 18.7109C132.56 18.6663 132.597 18.5919 132.597 18.4952C132.597 18.3837 132.56 18.3093 132.493 18.2572C132.419 18.2126 132.3 18.1903 132.144 18.1903H131.876Z" fill="#E1081F"/>
<path fill-rule="evenodd" clip-rule="evenodd" d="M132.159 20.5848C131.943 20.5848 131.735 20.5402 131.52 20.4509C131.319 20.3617 131.133 20.2352 130.977 20.079C130.82 19.9154 130.701 19.7369 130.62 19.5287C130.53 19.3204 130.493 19.1047 130.493 18.8816C130.493 18.6882 130.523 18.5097 130.582 18.3312C130.642 18.1527 130.731 17.9891 130.85 17.8403C131.014 17.6321 131.207 17.4685 131.43 17.3643C131.839 17.1561 132.367 17.1412 132.814 17.3271C133.015 17.4164 133.2 17.5354 133.357 17.7065C133.52 17.8626 133.639 18.0486 133.721 18.2494C133.803 18.4577 133.848 18.6733 133.848 18.889C133.848 19.1047 133.803 19.3427 133.721 19.5435C133.632 19.7518 133.505 19.9377 133.349 20.0865C133.193 20.2427 133.007 20.3691 132.799 20.4509C132.591 20.5402 132.382 20.5848 132.167 20.5848M132.167 17.461C131.951 17.461 131.735 17.5131 131.549 17.6023C131.356 17.6916 131.192 17.8329 131.058 18.004C130.962 18.1304 130.887 18.2717 130.835 18.4205C130.783 18.5692 130.761 18.718 130.761 18.8816C130.761 19.0675 130.798 19.2535 130.865 19.432C130.939 19.603 131.044 19.7518 131.17 19.8857C131.304 20.0195 131.46 20.1311 131.631 20.2055C131.973 20.3468 132.345 20.3542 132.702 20.2055C132.881 20.1311 133.037 20.027 133.171 19.8931C133.312 19.7592 133.409 19.6105 133.483 19.4394C133.55 19.2683 133.587 19.075 133.587 18.8816C133.587 18.6957 133.55 18.5097 133.483 18.3387C133.416 18.1676 133.312 18.0114 133.186 17.8775C133.052 17.7362 132.896 17.6321 132.724 17.5651C132.553 17.4908 132.367 17.4536 132.174 17.4536" fill="#E1081F"/>
<path fill-rule="evenodd" clip-rule="evenodd" d="M20.9591 2.09547H15.7826V0.124512H13.8116H11.8406V2.09547H6.68639L0 9.74132V20.8382H27.6158V9.74132L20.9591 2.09547Z" fill="#1D1D1B"/>
<path fill-rule="evenodd" clip-rule="evenodd" d="M1.97119 18.8668H12.8226V11.7192H1.97119V18.8668Z" fill="#E1081F"/>
<path fill-rule="evenodd" clip-rule="evenodd" d="M14.7935 18.8668H25.6449V11.7192H14.7935V18.8668Z" fill="#FEFEFE"/>
<path fill-rule="evenodd" clip-rule="evenodd" d="M25.1612 9.73359L20.2077 4.05127H9.84717L14.8229 9.73359H25.1612Z" fill="#006AB3"/>
<path fill-rule="evenodd" clip-rule="evenodd" d="M12.3391 9.74125L7.48232 4.03662L2.4917 9.74125H12.3391Z" fill="#FFEC00"/>
</g>
<defs>
<clipPath id="clip0_1243_6567">
<rect width="133.839" height="20.7509" fill="white" transform="translate(0 0.124512)"/>
</clipPath>
</defs>
</svg>
